<svg xmlns="http://www.w3.org/2000/svg" viewBox="0 0 1467.31 1350.87"><defs><style>.cls-1{fill:#008ffe;}.cls-1,.cls-2{fill-rule:evenodd;}.cls-2{fill:#0069ba;}</style></defs><g id="Camada_2" data-name="Camada 2"><g id="Layer_1" data-name="Layer 1"><g id="Layer_1-2" data-name="Layer_1"><g id="_1774035892096" data-name=" 1774035892096"><path class="cls-1" d="M136.08,201.76C340.64-39.07,701.69-68.47,942.52,136.08c222.84,189.28,264.63,512.54,107.57,750.56l111.69,94.87a57.9,57.9,0,0,1,61.73,8.28L1447,1179.65a57.88,57.88,0,0,1,6.62,81.33l-59.13,69.61a57.86,57.86,0,0,1-81.33,6.62l-223.52-189.85a57.87,57.87,0,0,1-18.16-59.58L959.83,992.91c-209.48,193.5-535.24,204.56-758.08,15.28C-39.07,803.63-68.48,442.58,136.08,201.76Zm71.45,60.68c171-201.36,472.93-225.95,674.3-54.91s225.95,472.94,54.91,674.3-472.93,225.95-674.3,54.91S36.49,463.81,207.53,262.44Z"/><path class="cls-2" d="M607.35,516.14c158.34,18.72,282.2,154.33,282.2,317.48v43.55q-12.9,13.49-27.13,26.07l-1.8,1.51,0,0a441.17,441.17,0,0,1-66,47.75V797.63a13.26,13.26,0,0,0-13.23-13.23h0a13.26,13.26,0,0,0-13.22,13.23v169.3a441.38,441.38,0,0,1-396.64-1.4V797.63a13.26,13.26,0,0,0-13.22-13.23h0a13.26,13.26,0,0,0-13.22,13.23V950.91a439,439,0,0,1-94.95-76.71V833.62c0-163.15,123.85-298.75,282.18-317.48l2.82,7.82,9.71,26.89-9.55,132.39-12.1,167.64L569.23,899l47.26-48.08-12.1-167.64-9.56-132.4,9.7-26.88,2.82-7.82ZM578.84,131A174.88,174.88,0,1,1,404,305.91,174.87,174.87,0,0,1,578.84,131Z"/></g></g></g></g></svg>